# xmcd
#
# Track frame offsets:
#	150
#	10537
#	17175
#	24075
#	34050
#	51450
#	62475
#	72712
#	78900
#	89100
#	100050
#	106500
#	120637
#	130800
#	141562
#	150150
#	157087
#	163050
#	176100
#	181500
#	194287
#	204037
#	213560
#	227512
#	236775
#	247612
#	256537
#	264600
#	275512
#	284212
#	292275
#	298462
#	307500
#
# Disc length: 4237 seconds
#
# Revision: 4
# Processed by: cddbd v1.5.1PL2 Copyright (c) Steve Scherf et al.
# Submitted via: EasyCDDAExtractor 9.1.0.1
#
DISCID=d4108b21
DTITLE=The Fuzzy Mountain String Band
DYEAR=1995
DGENRE=Bluegrass
TTITLE0=Shooting Creek
TTITLE1=Double File
TTITLE2=Old Sledge
TTITLE3=Gal I Left Behind Me
TTITLE4=Sally Ann
TTITLE5=The 28th Of January
TTITLE6=Green Willis
TTITLE7=Piney Woods
TTITLE8=Ebenezer
TTITLE9=Old Mother Flanagan
TTITLE10=The Last Of Calahan
TTITLE11=Wild Hog In The Woods
TTITLE12=Magpie
TTITLE13=Keep The Ark A Movin'
TTITLE14=Pretty Little Dog
TTITLE15=Protect The Innocent
TTITLE16=Poor Johnnie Has Gone To The War
TTITLE17=Frosty Morning
TTITLE18=Camp Chase
TTITLE19=Bonaparte's Retreat
TTITLE20=West Fork Girls
TTITLE21=Fire On The Mountain/Breaking Up Christmas
TTITLE22=Bonaparte Crossing The Rhine
TTITLE23=Showbird On The Ashbank
TTITLE24=Roustabout
TTITLE25=Santa Anna's Retreat
TTITLE26=Shortening Bread
TTITLE27=The Falls Of Richmond
TTITLE28=Quince Dillon's High D
TTITLE29=Peter Francisco
TTITLE30=One More River To Cross
TTITLE31=Barlow Knife
TTITLE32=Fisher's Hornpipe
EXTD=
EXTT0=
EXTT1=
EXTT2=
EXTT3=
EXTT4=
EXTT5=
EXTT6=
EXTT7=
EXTT8=
EXTT9=
EXTT10=
EXTT11=
EXTT12=
EXTT13=
EXTT14=
EXTT15=
EXTT16=
EXTT17=
EXTT18=
EXTT19=
EXTT20=
EXTT21=
EXTT22=
EXTT23=
EXTT24=
EXTT25=
EXTT26=
EXTT27=
EXTT28=
EXTT29=
EXTT30=
EXTT31=
EXTT32=
PLAYORDER=
